# xmcd
#
# Track frame offsets:
#	150
#	13274
#	31376
#	57703
#	73608
#	92561
#	108413
#	125428
#	140914
#	159320
#	177127
#	201705
#	217836
#	240260
#	261302
#	290421
#
# Disc length: 3878 seconds
#
# Revision: 1
# Processed by: cddbd v1.5.1PL2 Copyright (c) Steve Scherf et al.
# Submitted via: audiograbber 1.83.01
#
DISCID=f10f2410
DTITLE=karaoke - ASK_mixed country Vol.4 disc 2
DYEAR=1900
DGENRE=
TTITLE0=Leann Rimes - nothin' bout love makes sense
TTITLE1=Martina mcbride - how far
TTITLE2=Martina Mcbride - God's will
TTITLE3=Montgomery Gentry - if you ever stop loving me
TTITLE4=Montgomery Gentry - gone
TTITLE5=Phil Vassar - in a real love
TTITLE6=Rachel Procter - me and emily
TTITLE7=Rascal Flatts - feels like today
TTITLE8=Rascal Flatts - mayberry
TTITLE9=Sara Evans - suds in the bucket
TTITLE10=Sara Evans - Tonight
TTITLE11=Terri Clark - girls lie too
TTITLE12=Tim McGraw - live like you were dying
TTITLE13=Tim McGraw - back when
TTITLE14=Toby Keith - whiskey girl
TTITLE15=Data - Data Track
EXTD=
EXTT0=
EXTT1=
EXTT2=
EXTT3=
EXTT4=
EXTT5=
EXTT6=
EXTT7=
EXTT8=
EXTT9=
EXTT10=
EXTT11=
EXTT12=
EXTT13=
EXTT14=
EXTT15=
PLAYORDER=
